<svg width="110" height="89" viewBox="0 0 110 89" fill="none" xmlns="http://www.w3.org/2000/svg">
<path d="M77.4086 6.29373C78.3636 5.34867 79.9084 5.37167 80.8349 6.34474L107.793 34.6592C108.979 35.9043 108.969 37.8637 107.77 39.0964L63.3891 84.747C62.4595 85.7032 60.9286 85.7182 59.9805 84.7804L30.7547 55.8725C29.8052 54.9333 29.805 53.3997 30.7544 52.4603L77.4086 6.29373Z" fill="url(#paint0_linear_30_7600)"/>
<mask id="mask0_30_7600" style="mask-type:alpha" maskUnits="userSpaceOnUse" x="30" y="5" width="79" height="81">
<path d="M77.4086 6.29373C78.3636 5.34867 79.9084 5.37167 80.8349 6.34474L107.793 34.6592C108.979 35.9043 108.969 37.8637 107.77 39.0964L63.3891 84.747C62.4595 85.7032 60.9286 85.7182 59.9805 84.7804L30.7547 55.8725C29.8052 54.9333 29.805 53.3997 30.7544 52.4603L77.4086 6.29373Z" fill="url(#paint1_linear_30_7600)"/>
</mask>
<g mask="url(#mask0_30_7600)">
<g filter="url(#filter0_f_30_7600)">
<path d="M82.9319 14.8445L71.8298 4.4458L23.4565 44.4408L53.5907 90.0352L82.9319 52.4398V14.8445Z" fill="#D27F00"/>
</g>
</g>
<mask id="mask1_30_7600" style="mask-type:alpha" maskUnits="userSpaceOnUse" x="14" y="1" width="67" height="88">
<path d="M77.4913 55.9959C79.2346 53.7828 80.2054 51.0518 80.2522 48.2291L80.7063 20.8085C80.7708 16.9103 79.07 13.202 76.0873 10.7376L64.2704 1.59089C63.2255 0.782119 61.7242 0.981007 60.9162 2.03524L14.8042 62.2023C14.8042 62.2024 14.8041 62.2024 14.8041 62.2025V62.2025C14.804 62.2028 14.8041 62.2031 14.8043 62.2033L48.6741 87.9029C49.6994 88.6809 51.1552 88.5012 51.9696 87.496L77.4913 55.9959Z" fill="url(#paint2_linear_30_7600)"/>
</mask>
<g mask="url(#mask1_30_7600)">
<path d="M100.012 29.2181L61.4397 -2.48276L13.2571 62.3866L50.5235 91.7196L100.012 29.2181Z" fill="url(#paint3_linear_30_7600)"/>
<g filter="url(#filter1_f_30_7600)">
<path fill-rule="evenodd" clip-rule="evenodd" d="M-0.325217 64.4245C-0.329161 66.641 1.45246 68.4345 3.65417 68.4305L58.9995 68.329C61.2013 68.3249 62.9894 66.5248 62.9933 64.3083L63.0995 5.25948C63.1035 3.04296 61.3219 1.2494 59.1201 1.25345L3.77364 1.35528C1.57188 1.35933 -0.21621 3.15948 -0.220154 5.37601L-0.325217 64.4245ZM11.6347 11.0239C10.1338 11.0266 8.91482 12.2248 8.91217 13.7001L8.89939 20.8046C8.89674 22.2798 10.1114 23.4736 11.6124 23.4708L51.2035 23.3982C52.7045 23.3954 53.9234 22.1973 53.9261 20.722L53.9389 13.6175C53.9415 12.1422 52.7269 10.9485 51.2259 10.9513L11.6347 11.0239Z" fill="#9DAEC8"/>
</g>
<path d="M71.6011 28.0631C68.9999 31.7919 69.1384 36.808 71.9406 40.3634L78.4227 48.5877C79.9029 50.4658 79.8877 53.1419 78.3861 55.0135L76.414 57.4715L77.2768 56.8679C81.053 54.2261 83.3073 49.8682 83.3009 45.2224L83.2683 21.6925C83.2617 16.8872 80.6012 12.5008 76.3803 10.3363L74.4243 9.33324L77.3195 11.8523C79.2913 13.5678 79.6474 16.5286 78.1415 18.6873L71.6011 28.0631Z" fill="#DEE3EF"/>
</g>
<rect x="4.42529" y="9.24518" width="49.1663" height="15.998" fill="url(#paint4_linear_30_7600)"/>
<path fill-rule="evenodd" clip-rule="evenodd" d="M0.34048 60.9645C0.340521 63.1736 2.13137 64.9644 4.34047 64.9644H55.462C57.6711 64.9644 59.462 63.1736 59.462 60.9644V4.69003C59.462 2.48088 57.6711 0.690013 55.4619 0.690027L4.33941 0.690336C2.13025 0.69035 0.339389 2.48125 0.33943 4.69041L0.34048 60.9645ZM11.418 9.96902C10.0165 9.96902 8.88042 11.115 8.88042 12.5287V19.3365C8.88042 20.7502 10.0165 21.8962 11.418 21.8962H48.3849C49.7864 21.8962 50.9225 20.7502 50.9225 19.3365V12.5287C50.9225 11.115 49.7864 9.96902 48.3849 9.96902H11.418Z" fill="url(#paint5_linear_30_7600)"/>
<ellipse cx="14.1349" cy="35.1461" rx="5.25526" ry="5.30096" fill="#FFD16C"/>
<path d="M35.1571 35.1461C35.1571 38.0737 32.8043 40.4471 29.9019 40.4471C26.9995 40.4471 24.6466 38.0737 24.6466 35.1461C24.6466 32.2185 26.9995 29.8452 29.9019 29.8452C32.8043 29.8452 35.1571 32.2185 35.1571 35.1461Z" fill="#45B3FC"/>
<path d="M50.923 35.1461C50.923 38.0737 48.5702 40.4471 45.6678 40.4471C42.7654 40.4471 40.4125 38.0737 40.4125 35.1461C40.4125 32.2185 42.7654 29.8452 45.6678 29.8452C48.5702 29.8452 50.923 32.2185 50.923 35.1461Z" fill="#45B3FC"/>
<path d="M50.923 51.0494C50.923 53.977 48.5702 56.3504 45.6678 56.3504C42.7654 56.3504 40.4125 53.977 40.4125 51.0494C40.4125 48.1218 42.7654 45.7484 45.6678 45.7484C48.5702 45.7484 50.923 48.1218 50.923 51.0494Z" fill="#45B3FC"/>
<path d="M8.53271 50.9958C8.53271 48.0681 10.8856 45.6948 13.788 45.6948H30.2107C33.1131 45.6948 35.4659 48.0681 35.4659 50.9958C35.4659 53.9234 33.1131 56.2967 30.2107 56.2967H13.788C10.8856 56.2967 8.53271 53.9234 8.53271 50.9958Z" fill="#45B3FC"/>
<defs>
<filter id="filter0_f_30_7600" x="19.4565" y="0.445801" width="67.4753" height="93.5894" filterUnits="userSpaceOnUse" color-interpolation-filters="sRGB">
<feFlood flood-opacity="0" result="BackgroundImageFix"/>
<feBlend mode="normal" in="SourceGraphic" in2="BackgroundImageFix" result="shape"/>
<feGaussianBlur stdDeviation="2" result="effect1_foregroundBlur_30_7600"/>
</filter>
<filter id="filter1_f_30_7600" x="-7.3252" y="-5.74658" width="77.4248" height="81.1771" filterUnits="userSpaceOnUse" color-interpolation-filters="sRGB">
<feFlood flood-opacity="0" result="BackgroundImageFix"/>
<feBlend mode="normal" in="SourceGraphic" in2="BackgroundImageFix" result="shape"/>
<feGaussianBlur stdDeviation="3.5" result="effect1_foregroundBlur_30_7600"/>
</filter>
<linearGradient id="paint0_linear_30_7600" x1="87.6907" y1="28.4428" x2="69.6923" y2="59.8049" gradientUnits="userSpaceOnUse">
<stop stop-color="#FFD06C"/>
<stop offset="1" stop-color="#FFBC55"/>
</linearGradient>
<linearGradient id="paint1_linear_30_7600" x1="87.6907" y1="28.4428" x2="69.6923" y2="59.8049" gradientUnits="userSpaceOnUse">
<stop stop-color="#FFD06C"/>
<stop offset="1" stop-color="#FFBC55"/>
</linearGradient>
<linearGradient id="paint2_linear_30_7600" x1="72.03" y1="13.4454" x2="45.6643" y2="68.7877" gradientUnits="userSpaceOnUse">
<stop stop-color="#35B6FF"/>
<stop offset="1" stop-color="#3989FF"/>
</linearGradient>
<linearGradient id="paint3_linear_30_7600" x1="56.7246" y1="65.2573" x2="46.4508" y2="90.7815" gradientUnits="userSpaceOnUse">
<stop offset="0.65625" stop-color="#D2D9E9"/>
<stop offset="1" stop-color="#BFC9DE"/>
</linearGradient>
<linearGradient id="paint4_linear_30_7600" x1="13.9414" y1="23.6434" x2="20.3617" y2="14.0959" gradientUnits="userSpaceOnUse">
<stop stop-color="#104AAE"/>
<stop offset="1" stop-color="#135AD4"/>
</linearGradient>
<linearGradient id="paint5_linear_30_7600" x1="29.8013" y1="2.84598" x2="29.9024" y2="64.9644" gradientUnits="userSpaceOnUse">
<stop stop-color="#2FAAFC"/>
<stop offset="1" stop-color="#2D89F5"/>
</linearGradient>
</defs>
</svg>
