<svg width="9" height="16" viewBox="0 0 9 16" fill="none" xmlns="http://www.w3.org/2000/svg">
<path d="M8.99561 8.00684C8.99561 7.6665 8.87109 7.38428 8.60547 7.11865L2.21387 0.868164C1.99805 0.652344 1.74072 0.552734 1.43359 0.552734C0.811035 0.552734 0.304688 1.04248 0.304688 1.66504C0.304688 1.97217 0.4375 2.25439 0.661621 2.47852L6.33936 7.99854L0.661621 13.5352C0.4375 13.7593 0.304688 14.0332 0.304688 14.3486C0.304688 14.9712 0.811035 15.4692 1.43359 15.4692C1.74072 15.4692 1.99805 15.3613 2.21387 15.1455L8.60547 8.89502C8.87939 8.62939 8.99561 8.34717 8.99561 8.00684Z" fill="#C8C8C8"/>
</svg>
